/* XPM */
static char *_7ce5e4cab3c40c9a93a596faf7141b85lT4ja9e6UW6y3KU[] = {
/* columns rows colors chars-per-pixel */
"64 64 229 2 ",
"   c #070707",
".  c gray3",
"X  c #090909",
"o  c gray4",
"O  c #0B0B0B",
"+  c gray6",
"@  c #111111",
"#  c #131313",
"$  c gray8",
"%  c #151515",
"&  c #161616",
"*  c gray9",
"=  c #181818",
"-  c #191919",
";  c gray10",
":  c #1B1B1B",
">  c gray11",
",  c #1D1D1D",
"<  c #1E1E1E",
"1  c gray12",
"2  c #202020",
"3  c gray13",
"4  c #222222",
"5  c #232323",
"6  c gray14",
"7  c #252525",
"8  c gray15",
"9  c #272727",
"0  c #282828",
"q  c gray16",
"w  c #2A2A2A",
"e  c gray17",
"r  c #2C2C2C",
"t  c #2D2D2D",
"y  c gray18",
"u  c #2F2F2F",
"i  c gray19",
"p  c #313131",
"a  c #323232",
"s  c gray20",
"d  c #343434",
"f  c #353535",
"g  c gray21",
"h  c #373737",
"j  c gray22",
"k  c #393939",
"l  c #3A3A3A",
"z  c gray23",
"x  c #3C3C3C",
"c  c gray24",
"v  c #3E3E3E",
"b  c #3F3F3F",
"n  c gray25",
"m  c #414141",
"M  c gray26",
"N  c #434343",
"B  c #444444",
"V  c gray27",
"C  c #464646",
"Z  c gray28",
"A  c #484848",
"S  c #494949",
"D  c gray29",
"F  c #4B4B4B",
"G  c #4C4C4C",
"H  c gray30",
"J  c #4E4E4E",
"K  c gray31",
"L  c #505050",
"P  c #515151",
"I  c gray32",
"U  c #535353",
"Y  c gray33",
"T  c #555555",
"R  c #565656",
"E  c gray34",
"W  c #585858",
"Q  c gray35",
"!  c #5A5A5A",
"~  c #5B5B5B",
"^  c gray36",
"/  c #5D5D5D",
"(  c gray37",
")  c #5F5F5F",
"_  c #606060",
"`  c gray38",
"'  c #626262",
"]  c gray39",
"[  c #646464",
"{  c #656565",
"}  c gray40",
"|  c #676767",
" . c #686868",
".. c DimGray",
"X. c #6A6A6A",
"o. c gray42",
"O. c #6C6C6C",
"+. c #6D6D6D",
"@. c gray43",
"#. c #6F6F6F",
"$. c gray44",
"%. c #717171",
"&. c #727272",
"*. c gray45",
"=. c #747474",
"-. c gray46",
";. c #767676",
":. c #777777",
">. c gray47",
",. c #797979",
"<. c gray48",
"1. c #7B7B7B",
"2. c #7C7C7C",
"3. c gray49",
"4. c #7E7E7E",
"5. c gray50",
"6. c #808080",
"7. c #818181",
"8. c gray51",
"9. c #838383",
"0. c #848484",
"q. c gray52",
"w. c #868686",
"e. c gray53",
"r. c #888888",
"t. c #898989",
"y. c gray54",
"u. c #8B8B8B",
"i. c gray55",
"p. c #8D8D8D",
"a. c #8E8E8E",
"s. c gray56",
"d. c #909090",
"f. c gray57",
"g. c #929292",
"h. c #939393",
"j. c gray58",
"k. c #959595",
"l. c gray59",
"z. c #979797",
"x. c #989898",
"c. c gray60",
"v. c #9A9A9A",
"b. c #9B9B9B",
"n. c gray61",
"m. c #9D9D9D",
"M. c gray62",
"N. c #9F9F9F",
"B. c #A0A0A0",
"V. c gray63",
"C. c #A2A2A2",
"Z. c gray64",
"A. c #A4A4A4",
"S. c #A5A5A5",
"D. c gray65",
"F. c #A7A7A7",
"G. c gray66",
"H. c #A9A9A9",
"J. c #AAAAAA",
"K. c gray67",
"L. c #ACACAC",
"P. c gray68",
"I. c #AEAEAE",
"U. c #AFAFAF",
"Y. c gray69",
"T. c #B1B1B1",
"R. c #B2B2B2",
"E. c gray70",
"W. c #B4B4B4",
"Q. c gray71",
"!. c #B6B6B6",
"~. c #B7B7B7",
"^. c gray72",
"/. c #B9B9B9",
"(. c gray73",
"). c #BBBBBB",
"_. c #BCBCBC",
"`. c gray74",
"'. c gray",
"]. c gray75",
"[. c #C0C0C0",
"{. c #C1C1C1",
"}. c gray76",
"|. c #C3C3C3",
" X c gray77",
".X c #C5C5C5",
"XX c #C6C6C6",
"oX c gray78",
"OX c #C8C8C8",
"+X c gray79",
"@X c #CACACA",
"#X c #CBCBCB",
"$X c gray80",
"%X c #CDCDCD",
"&X c #CECECE",
"*X c gray81",
"=X c #D0D0D0",
"-X c gray82",
";X c #D2D2D2",
":X c LightGray",
">X c gray83",
",X c #D5D5D5",
"<X c gray84",
"1X c #D7D7D7",
"2X c #D8D8D8",
"3X c gray85",
"4X c #DADADA",
"5X c gray86",
"6X c gainsboro",
"7X c #DDDDDD",
"8X c gray87",
"9X c #DFDFDF",
"0X c gray88",
"qX c #E1E1E1",
"wX c #E2E2E2",
"eX c gray89",
"rX c #E4E4E4",
"tX c gray90",
"yX c #E6E6E6",
"uX c #E7E7E7",
"iX c gray91",
"pX c #EAEAEA",
"aX c gray92",
"sX c #EEEEEE",
"dX c gray94",
"fX c #F3F3F3",
"gX c #F4F4F4",
"hX c gray98",
"jX c white",
/* pixels */
"V x x x x x x x x x f t m F V F F F F F F F V G I F t f x a e m G F G G F F F F m f z z z z z z z z f f z z x x x x x x x x x V ",
"Y Y Y Y Y I I Y Y I x e.7X=X#X|._.#XoXoX_.oX=X).S.*Xe.- t a 2.!.).P.P.P.R.R.S.P.l.G 6 5 x F V V V V V V V V F G G G G I I I I I ",
"Y G G F G Y Y Y ^ I I 7XtX!.!.).R.B.B.S.G.N.G.N.u.B.B.e 5 p.tXB.f.c.f.f.l.l.c.N.p.{ a 1 x &.p.p.u.u.p.u.;.+.^ G F G G F V V V G ",
"B.c.c.c.l.p.p.` V G G =X*XG.N.G._.p.u.e.u.p.f.N.G.8...6 t _.=Xl.f.f.l.l.f.l.f.l.2.^ a 1 z p.tXiXtXtXtXwX,X#X_.).P.G.P.S.B.N.N.B.",
"*X=X=X=X#XR.N.+.z F I =X*XS.N.B.N.c.N.p.f.c.f.u.B.e.G 5 a S.|.f.l.f.l.c.l.f.f.f.;.Y a 1 z p.iXwX=X*X=X=X2X2X,X,X,X*X=X,X=X,X,X,X",
"l.c.l.l.N.P.f.` f V I *X*XB.B.B.c.N.l.f.f.f.l.f.f.2.I 1 a <.S.l.c.N.f.f.c.c.c.c.<.Y a - z f.2XP.N.B.N.l.N.N.B.l.c.l.N.c.c.N.N.S.",
"l.p.e.p.u.S.u.Q a x I =X#Xc.B.c.B.c.u.e.p.f.f.l.c.8.I 5 a Y e.c.l.N.c.c.c.l.N.B.+.m a 1 z f.2XS.c.N.l.l.f.l.l.c.c.l.c.l.c.l.N.P.",
"f.p.p.u.p.c.&.V 6 t G ,X#Xf.G.S.B.p.e.p.l.B.l.f.N.p.G 5 a F Y 2.l.N.N.c.f.l.N.;.V z t 6 z l.2X!.B.f.l.l.B.S.N.c.N.l.l.c.f.l.l.N.",
"l.e.f.l.N.f.` m 6 e F *X#Xl.N.B.c.l.l.c.f.f.N.c.N.u.G 5 e V V V I ^ Q Y Q Q G z z f 5 t x u.2XP.N.c.l.N.S.B.l.l.c.l.f.f.u.f.f.f.",
"c.l.N.N.f.<.I f 6 e V oXoXf.c.N.c.l.c.f.u.N.N.f.c.e.I 6 1 z F a t a a a a t e t 6 1 1 f m ..*XR.f.l.B.N.c.B.c.f.c.f.f.l.u.p.f.f.",
"2.2.;.&.Y V z 1 6 t m !.,Xc.c.c.l.f.l.l.l.f.c.c.S.f.I e 1 f F a - + O O O O   O O @ 6 x V { oXP.f.c.c.c.l.p.e.8.8.<.2.e.2.&.;.2.",
"Y V m x z 6 1 5 e t x l.2XS.c.c.l.N.B.B.c.N.B.G.P.8.Y t 1 f z a V Y I Y Q ` &.e.8.^ a a G Q c.c.2.2.<.;.;.{ G G Y Y Y Q I F F Y ",
"a 6 1 1 5 6 e t a z m &.,XG.p.N.c.c.N.S.l.B.B.l.B.e.Y t 1 a t Y *XjXdXtX=X*X2X,X!.p.V 5 F F Y ..^ ^ Y G V m z a t a t e e t t f ",
"f e t t t a a a a z F I #X).u.S.l.l.c.c.c.B.N.f.G.u.I t 1 e e G.jXtX*X_.).R.B.l.e.+.x 6 z z f f z z f a a t a t 6 5 5 5 5 5 5 t ",
"m a a a a f f f f z G V G.#XB.c.l.N.N.N.l.l.c.c.N.8.Q a - e t |.dX).P.R.G.S.N.c.u.;.z 6 z f t t a a a a a t t f z f f f f f f x ",
"Q F V m m z z f z z F m f.#XN.c.c.S.l.f.e.e.l.f.f.8.Q f - e a !.7XN.B.G.S.c.l.N.p.;.z 5 z m G I I G F V m V V V V F F F F F V I ",
"!.R.R.P.P.l.e.e.{ t a m +.|.S.B.N.c.p.e.e.u.l.f.f.e.Q z 1 6 t G.dXG.f.c.N.N.N.l.2.;.z 5 a e.*XR...G F G 2.R.R.P.P.P.P.P.P.P.P.R.",
"2X2X2X2X,X,X).N.&.a 6 V Y S.G.B.S.e.e.e.e.u.u.u.l.2.I x 1 6 t u.|.R.G.c.l.l.f.e.8.2.z % F #X,X#X2.m x { 7XtX2X2X,X2X2X2X7X2X2X7X",
"R.P.G.S.S.B.l.2...f 5 F F p.G.l.f.8.8.8.e.2.+.+.+.Y Q x 1 e a f V p.B.e.<.;.2.2.8.+.z % Q 2X).P.;.x z <.iX).G.P.G.R.R.P.P.P.R.!.",
"N.N.c.N.N.B.N.2.` a 6 V I ` e.{ ` ^ Q ` ^ Y Y Y G I G t 1 e f 5 5 V Y Y Y ^ Q Y I m f - ..iXP.c.+.f z 2.7XG.N.B.B.c.B.B.N.c.c.N.",
"B.c.N.B.c.S.N.2.^ a 6 V ^ m f f f f f z x x m x f t 6 5 1 6 a t 6 6 e e 6 e 6 6 6 6 6 1 &.tXS.G.&.e f 2.=XS.B.N.c.l.N.N.c.N.c.N.",
"B.N.B.c.B.N.N.<.^ a 6 V ^ F 6 5 5 5 - - 1 5 1 1 - - - 1 1 6 e 6 e - @ % 1 5 5 6 e e a e 2.7XN.P.+.t z <._.l.c.B.c.N.f.f.c.N.B.B.",
"B.S.N.N.S.B.S.;.I a 6 z V G I V a e e 5 1 5 5 e f a f z m m F F G 8.N.p.e.u.e.+.F a f z P.,Xf.N...t z ;.|.N.l.c.c.l.f.l.S.c.B.S.",
"G.B.B.G.c.c.B.<.G t 6 a { |.,X,X=X#X!.c.+.x f z +.P.#X#X#X|._.oX,XtX*XoXoX).oXB.Q 5 t ` 2X).N.B.` a x ..!.N.N.c.l.l.B.N.N.S.N.N.",
"N.S.S.S.B.N.c.;.V a 5 x *XwX#X_.).!.!.P.l.I m f !.jXtX=X|._.R.).R.N.N.c.N.G.S.8.F 1 e e.2XN.S.B.^ 6 m Q f.B.G.G.l.c.N.N.l.c.S.N.",
"<.<.<.<.u.l.2.Y x f 1 G oX).).R.B.B.l.R.f.m V x !.wXG.c.c.B.c.N.l.f.B.N.B.R.l.+.x 1 t f.*Xl.B.G.` 6 F V I +.2.<.;.<.;.;.&.;.2.2.",
"Y I I Y ^ ^ V z z e 1 F _.R.P.c.l.f.N.oXf.t m m P.=XS.f.f.N.l.f.c.c.f.l.l.B.B...z 1 t p.oXf.S.S.^ 6 Y F e e z x x x x x V F G Y ",
"F x x a a t e e 5 5 e I _.P.S.f.l.l.N.).c.a x m P.=Xf.u.c.N.l.c.f.u.c.N.N.c.l.{ a 5 t p.*Xf.c.B.^ 6 Y ^ F 6 % 1 1 1 1 5 5 t z F ",
"t 1 - % % - 6 e t m m Q ).B.N.c.c.f.c.G.8.a f x R.,Xc.f.f.c.l.f.l.f.l.N.l.c.N.{ a 5 t p.*Xl.l.S.` 6 Y ^ Q F a t a a t 6 5 5 5 t ",
"G I ^ &.8.u.8.e.u.e.m f R.f.c.c.N.c.S.!.8.a e z P.,XB.c.l.c.f.e.p.f.S.l.f.c.P.{ t 5 t p.*Xf.N.G.` 6 Y F m Y ^ Y F V m x z z z V ",
"&.l.!.#X*X=X#X*X#XP.x t !.p.c.c.N.c.N.#Xu.f 6 x c.*XN.l.c.N.f.u.p.l.p.f.l.l.c...e 5 t u.#Xf.N.S.^ e F ` P.|.P.f.8.;.+.{ G F G ^ ",
"8.S.N.f.u.p.B.G.S.N.x a _.l.N.f.N.c.B.!.u.V e z 8.*XP.f.f.l.l.c.l.c.f.l.f.u.p.{ e 6 a u.|.l.B.c.^ 5 V oXgX*XoXoX#X*X*X#XG.{ x Q ",
"e.!.c.c.f.u.c.l.B.N.z f _.f.c.u.l.N.B.G.p.G t e ^ #XR.l.N.u.l.c.u.f.c.f.u.N.l.` e 6 a e.oXc.S.l.` 1 I 7XoX!.).P.S.S.B.l.N.+.z Y ",
"8.!.l.N.N.f.l.c.N.N.x a _.l.f.N.N.c.G.R.e.G t 5 Y _.|.c.S.c.p.u.u.p.f.l.N.S.c.^ 6 e a 8._.N.B.f.Q 1 Q *X_.).S.N.S.B.l.2.&.` x G ",
"8._.c.c.f.u.f.S.B.c.m a !.c.B.N.N.N.S.R.8.F t 6 I G.*XB.f.c.N.p.c.c.l.l.f.G.B.Y 1 e f 8.R.l.c.e.f 5 Y ).R.G.N.B.N.p.e.<.;.` x F ",
"8._.N.p.u.e.l.N.f.p.m t ).c.N.c.N.N.c.S.2.F t e m 8.oXG.N.u.u.l.c.c.N.S.N.N.2.z 1 e f &.R.f.8.F - z I N.P.S.P.N.l.8.2.2.;.{ x F ",
"8._.G.p.u.N.c.e.u.2.x e R.N.f.l.N.N.l.N.8.F t e x ` !._.S.p.l.N.N.c.p.&...Y V f 5 a z m ` Y z 1 z G m { l.B.S.c.p.8.8.<.&.` m m ",
"8.).B.l.c.l.u.u.f.2.x 6 P.P.S.S.B.B.N.B.p.G t 6 x G f.*XR.l.p.+.^ G V a a x m a - a F f e e t V I I V a F Q ..{ ` ` ^ Q Q V a V ",
"8._.S.c.f.p.l.B.f.e.m 1 S.).B.G.S.N.l.S.p.I a 6 x m a ..<.` G f t 6 6 5 - - 1 1 1 a G G F F Q Q Y Y Y x e 5 6 e e e t t t 6 f V ",
"8._.S.f.c.c.B.N.l.e.m - p.!.N.N.c.N.c.P.p.G a 6 f F a % - e 6 1 1 6 6 e e e e e e z F Y I V m m m m m m m z t t t t t t t z z F ",
"8.).N.B.S.G.c.p.l.e.m % 8.#XS.G.c.c.c.S.e.G a 6 f F I x 5 5 6 6 e x x x x x x x m V m V I Y { ..+.+.+.+.+.+.+.+.+.+.+.+.;.I f Q ",
"8.!.N.N.l.N.N.N.f.<.V - ;.2XB.S.c.c.N.G.e.I a 5 a f V ` <.&.&.&.&.&.;.;.;.;.;.&.;.&.;.c.|.*X,X7XtXwXwXwXwXwXwXwXtXiX7XoX!.+.a Y ",
"8._.c.c.c.N.B.N.u...z 1 ^ *XB.c.p.c.N.G.e.I f 1 e t m _.hXiXtXtXtXwX7XwX7X7XwX7XwX7X7XdXiX7X2X7X2X2X2X2X7X7X7X2X2X,X2X|.f.` a G ",
"8.).S.N.c.c.f.f.e.Q t 5 ^ #XS.c.c.c.f.S.e.G f 1 5 e G 7XsX=X=X=X=X=X*X*X=X=X*X=X=XoX|._.!.P.P.G.P.!.!.R.G.S.P.P.R.G.!.N.2.^ a F ",
"<.S.B.B.f.u.e.e.e.I 1 t ^ oXN.l.c.c.B.S.e.G f 1 5 e G *X=XG.R.P.P.!.).!.!.).P.P.G.G.G.G.R.!.B.c.N.S.G.S.l.l.c.B.B.P.B.f.2.^ a x ",
"{ N.B.f.u.e.p.u.<.x 1 f Q _.N.l.p.l.N.c.8.Y f 1 5 e G |.,XG.S.S.S.R.).P.P.P.B.B.R.).S.S.G.S.l.c.l.B.c.c.B.N.c.c.f.B.l.p.2.^ f z ",
"^ B.N.8.e.e.e.&.V 5 t z Y !.G.p.c.B.c.G.e.I f 1 5 6 F _.,X_.S.S.R.B.N.c.c.N.c.S.N.c.B.B.S.N.l.c.c.c.c.c.B.c.N.B.c.l.e.p.2.` z z ",
"I ..&.^ Q Y G z 6 e a x G c.S.c.N.l.l.l.&.Q f 1 5 5 f N.*X).S.B.B.c.S.S.l.f.c.c.c.l.c.N.c.B.N.c.N.N.c.f.l.N.N.p.f.c.u.u.2.` a z ",
"Y m f a e e t e t t f V V ^ ..{ ` ` ` ^ Y G f 5 1 6 6 Q P.R.B.N.N.N.N.l.l.N.c.B.c.c.l.l.N.c.l.B.N.f.p.e.f.l.p.p.u.f.u.u.2.` f z ",
"` G x f e 5 6 e t t z V x t t t a a a a a a t 5 1 6 t z ^ l.G.c.N.N.B.S.p.l.c.l.u.f.c.c.G.c.f.N.l.u.e.u.p.f.u.p.p.8.u.p.2.` t f ",
"Y f z I ` ^ F t e t f x f 6 1 5 5 1 5 1 5 5 5 5 5 5 a G m G ....{ ......;.f.c.l.f.f.u.p.l.l.f.u.e.e.e.e.e.e.e.u.p.e.u.u.<.Q e x ",
"m ^ !.=X,X#X!.p.{ V z f t e t e t t t t t t t t t t z Q G z e t t t e z Y { ;.e.f.e.8.8.8.8.8.2.8.8.e.8.2.2.8.e.u.e.u.<.+.G 6 m ",
"x G.sX=X_.).*X2X,X).u.` m a 5 5 6 t t t t t t a a f F I V V z a a t t t f G ^ { ....{ { { { { ....{ ..{ { { { { { ..` ^ Q x t m ",
"F !.#Xc.N.B.N.N._.2XwX2XG.8.;.2.<.<.2.2.2.2.2.&.......` Q Y F V V F V f t a z z f f x x x x x x x x x x x x x x x x f a a t z I ",
"F R._.p.p.c.B.f.f.N.G.=X2X*X*X*X=X=X=X*X*X*X*X#XoX).R.!.).!.R.B.^ f F V x t 5 6 6 6 e t t e t t t t t t t t t t t e e e t z V Y ",
"G P.R.l.N.c.N.c.p.c.p.c.).R.S.B.G.P.P.P.N.S.S.S.P.P._.,X=X=X*X*Xc.e a Q F V I G x a t a f z z z z a a a a a a a a a a f V G G ^ ",
"G G.!.c.N.c.u.N.B.c.l.f.N.S.N.c.f.l.N.P.B.c.l.f.p.f.l.c.c.l.c.c.p.6 t Y x c.2XoX*XR.<.m x G Y G x F Q Q Q Q Q Q Q Q ^ I V Y Y ` ",
"I S.).B.B.B.B.B.B.B.B.c.c.B.G.P.P.S.G.S.G.c.B.S.N.B.N.B.S.N.N.l.&.e 6 F V S._.P.=X2XwX*Xu.Y Y z 8.=X,X#X*X*X#XoX#XoX*X!.Q m G ^ ",
"I &.c.B.G.R.P.B.S.P.S.N.B.c.B.!.!.G.G.P.P.B.B.c.c.c.B.S.N.c.c.f...t 1 x G N._.!.R.R.).*X!...m <.wX#X!.P.!.!.R.P.P.P.G.!.B.Q V ^ ",
"I x I I ^ ^ Y ^ ^ ^ Q Y ^ Y Y Q I I Y ` ` Q ` G m G I G F G F G m e - f I c.R.G.G.G.S.N.N.&.V ).#Xl.B.S.S.S.S.S.S.G.S.N.B...f ^ ",
"Y z e 6 5 5 6 6 5 5 6 6 6 6 6 6 6 6 5 1 - - - 1 1 - - - - - - - 5 5 1 x G Y &.;.;.<.8.2.&.I F S.B.l.c.N.c.c.c.N.N.c.c.c.N...t ^ ",
"` G x z f a t a f z z f a a a a t t t e t t t t t t t t t t t t t t e x m a z m x m G V a t m ..{ { { { { { { { { { { ....F f ` ",
"Y Y Y I F V V V F G G F x z z z z z z z z z z z z z z z z z z z z z z z z z z f a a t a f z x F m a t t t t t t t t t t t f F Q ",
"G V F F F F F F V V V V V V V V V V V V V V V V V V V V V V V V V V V V V V V V V V V V V V V V F V V V V V V V V V V V V F F G "
};
