/* XPM */
static char *_7f111fc9fdd48b9a2f7df31422da098go3XyLZcG1gMIr37[] = {
/* columns rows colors chars-per-pixel */
"64 64 143 2 ",
"   c #585858",
".  c gray35",
"X  c #5A5A5A",
"o  c #5B5B5B",
"O  c gray36",
"+  c #5D5D5D",
"@  c gray37",
"#  c #5F5F5F",
"$  c #606060",
"%  c gray38",
"&  c #626262",
"*  c gray39",
"=  c #646464",
"-  c #656565",
";  c gray40",
":  c #676767",
">  c #686868",
",  c DimGray",
"<  c #6A6A6A",
"1  c gray42",
"2  c #6C6C6C",
"3  c #6D6D6D",
"4  c gray43",
"5  c #6F6F6F",
"6  c gray44",
"7  c #717171",
"8  c #727272",
"9  c gray45",
"0  c #747474",
"q  c gray46",
"w  c #767676",
"e  c #777777",
"r  c gray47",
"t  c #797979",
"y  c gray48",
"u  c #7B7B7B",
"i  c #7C7C7C",
"p  c gray49",
"a  c #7E7E7E",
"s  c gray50",
"d  c #808080",
"f  c #818181",
"g  c gray51",
"h  c #838383",
"j  c #848484",
"k  c gray52",
"l  c #868686",
"z  c gray53",
"x  c #888888",
"c  c #898989",
"v  c gray54",
"b  c #8B8B8B",
"n  c gray55",
"m  c #8D8D8D",
"M  c #8E8E8E",
"N  c gray56",
"B  c #909090",
"V  c gray57",
"C  c #929292",
"Z  c #939393",
"A  c gray58",
"S  c #959595",
"D  c gray59",
"F  c #979797",
"G  c #989898",
"H  c gray60",
"J  c #9A9A9A",
"K  c #9B9B9B",
"L  c gray61",
"P  c #9D9D9D",
"I  c gray62",
"U  c #9F9F9F",
"Y  c #A0A0A0",
"T  c gray63",
"R  c #A2A2A2",
"E  c gray64",
"W  c #A4A4A4",
"Q  c #A5A5A5",
"!  c gray65",
"~  c #A7A7A7",
"^  c gray66",
"/  c #A9A9A9",
"(  c #AAAAAA",
")  c gray67",
"_  c #ACACAC",
"`  c gray68",
"'  c #AEAEAE",
"]  c #AFAFAF",
"[  c gray69",
"{  c #B1B1B1",
"}  c #B2B2B2",
"|  c gray70",
" . c #B4B4B4",
".. c gray71",
"X. c #B6B6B6",
"o. c #B7B7B7",
"O. c gray72",
"+. c #B9B9B9",
"@. c gray73",
"#. c #BBBBBB",
"$. c #BCBCBC",
"%. c gray74",
"&. c gray",
"*. c gray75",
"=. c #C0C0C0",
"-. c #C1C1C1",
";. c gray76",
":. c #C3C3C3",
">. c gray77",
",. c #C5C5C5",
"<. c #C6C6C6",
"1. c gray78",
"2. c #C8C8C8",
"3. c gray79",
"4. c #CACACA",
"5. c #CBCBCB",
"6. c gray80",
"7. c #CDCDCD",
"8. c #CECECE",
"9. c gray81",
"0. c #D0D0D0",
"q. c gray82",
"w. c #D2D2D2",
"e. c LightGray",
"r. c gray83",
"t. c #D5D5D5",
"y. c gray84",
"u. c #D7D7D7",
"i. c #D8D8D8",
"p. c gray85",
"a. c #DADADA",
"s. c gainsboro",
"d. c #DDDDDD",
"f. c gray87",
"g. c #DFDFDF",
"h. c #E1E1E1",
"j. c #E2E2E2",
"k. c gray92",
"l. c #ECECEC",
"z. c #EEEEEE",
"x. c #EFEFEF",
"c. c gray94",
"v. c gray98",
/* pixels */
",.o.%.e.e.7.3.3.3.3.e.e.e.3.7.7.7.e.3.7.3.3.3.,.e.,.7.7.7.7.%.{ %.@.%.r.e.7.3.3.3.3.e.e.e.3.7.7.7.e.3.7.3.3.3.,.e.,.7.7.7.7.-.Q ",
"U Q 7.g.3.,.@.@.@.@.%.-.,.-.@.@.%.@.{ %.,.%.@.@.%.%.-.%.@.@.@.] U Q 7.g.7.,.@.@.@.@.%.-.,.-.@.@.%.@.{ %.,.%.@.@.%.%.-.%.@.@.@.o.",
"s U 3.o.{ o.{ o.o.@.o./ ] { ] ] ] o.{ @.%.{ ] { { ] { { { ] @./ 0 G 3.o.{ o.{ o.o.@.o./ ] { ] ] ] o.{ @.%.{ ] { { ] { { { ] @.o.",
"y C ,.-.] @.] { { @.o.] / { %.{ { %.o.@.{ { { ] { ] o.{ o.] -./ 7 n ,.-.] @.] { { @.o.] / { %.{ { %.o.@.{ { { ] { ] o.{ o.] %.o.",
"s D -.@./ / ] / / / ] ] Q ] ] / { o./ / ] ] { o.] ] o.{ ] ] ] / 0 C -.@./ / ] / / / ] ] Q ] ] / { o./ / ] ] { o.] ] o.{ ] ] / { ",
"s G @./ Q T Q / Q Q ] ] ] / T T T ] ] / { ] Q @.{ o.o.{ { { / Q 0 D @./ Q T Q / Q Q ] ] ] / T T T ] ] / { ] Q @.{ o.o.{ { { / ] ",
"s G o./ T Q Q T G T Q ] ] ] G U Q Q T / ] { Q { { ] { { Q T { T 7 D o./ T Q Q T G T Q ] ] ] G U Q Q T / ] { Q { { ] { { Q T { / ",
"s G @.] T ] D U T G G / Q T U G U G G / Q T ] / Q U T T T G / ] 0 D @.] T ] D U T G G / Q T U G U G G / Q T ] / Q U T T T G Q o.",
"s G o.U U G n Q Q D T U G T / Q D Q Q G U U U U U U G Q U G / T 0 G o.U U G n Q Q D T U G T Q Q D Q Q G U U U U U U G Q U G / / ",
"s G { G D G G G D G U U G D U U G T G D G G D D n G U U C C Q G 7 G { G D G G G D G U U G C U U G T G D G G D D n G U U C C Q T ",
"s G @.U C U T C D D C G C T T D T G n D U D T G n G D C G C U U 7 D @.U C U T C D D C G C T T D T G n D U D U D n G D C G C U Q ",
"s G %.G j b b n C G U n n C D G D D C D D C G D D D D T G n U G 7 D %.G j b b n C G U n n C D G D D C D D C G D D D D T G n U T ",
"s G @.T n j b n j j b b C n n C b n D G b D C n C D C G D C D C 0 D @.U n j b n j j b b C n n C b n D G b D C n C D C G D C D U ",
"s D / b y s y s s y 0 s s s s s s s s 0 7 y y 0 7 y y y s s h y 0 D / n y y y s s y 0 s s s s s s s s y 7 s y y 7 y y y s s h j ",
"h G G 0 + + + + * * * * * * : > > : * * * * * * * * * * o + o + y G G 0 + o + + * * * * * * : > > : * * * * * * * * * * o o + : ",
"G G G n h s h j h s h s j s 0 7 2 7 y s h j h h s s h s j s s j D U D b h s s h h h s h j s 0 7 2 7 y s h s h s s s y s s h s h ",
"7.-.3.,.7.7.,.e.3.7.7.7.e.-.U b h G -.7.7.e.r.e.7.r.e.7.3.3.e.7.e.7.3.7.e.3.,.7.7.e.e.e.e.-.U b h G -.7.,.3.e.7.7.7.r.g.p.p.e.e.",
"-.o.%.3.%.@.%.-.-.-.-.%.%.%.o.D G 7.x.g.e.,.3.3.7.e.e.7.,.-.e.3.-.,.3.r.3.%.-.-.,.,.,.-.@.%.o.D G 7.x.h.r.7.7.e.e.e.r.g.g.r.7.e.",
"@.{ @.%.{ ] { { ] { { { ] @.{ n G 7.3.@.o.] ] { o.{ { o.{ ] ] ] { ] o.@.] ] ] { ] { { { ] @.{ n G e.7.@.@.{ { { o.{ ] { o./ ] { ",
"%.o.@.{ { { ] { ] o.{ o.] %.{ h n 3.@.] @.{ o.o.@.@.] ] { %.{ { %.o.@.{ { { ] { ] o.{ o.] %.{ h n 3.%.] @.{ o.{ @.@.] ] / @.o.{ ",
"@./ / ] ] { o.] ] o.{ ] ] ] { h C 3.%./ o.] / ] { { ] Q ] ] / { o./ / ] ] { o.] ] o.] ] ] / { h C 3.%./ o.] / ] { { ] / { o.{ o.",
"o.] / { ] Q @.{ o.o.{ { { / / h C %.{ / T Q / ] Q / ] / / T T T ] ] / { ] Q @.{ o.o.{ { { / / h C %.{ / T Q / ] Q / ] / / Q Q ] ",
"Q T / ] { Q { { ] { { Q T { / s D o.Q T T / Q U / ] ] o.] G U Q Q T / ] { Q { { ] { { Q T { / s D o.Q T T / Q U / ] ] { ] U U / ",
"U G / Q T ] / Q U T T T G Q { s D %.] T / U G U T T ] / T U G U G G / Q T ] / Q U T T T G Q { s D %.] T / U G U T T ] / Q G G Q ",
"/ Q G U U U U U U G Q U G / Q y D %.Q T Q C Q Q C G Q U U / Q D Q Q G U U U U U U G Q U G / Q y D %.Q T Q C Q Q C G T T T / U U ",
"T G D G G D D n G U U C C Q U 0 G o.G U D D T U D Q U D D U U G T G D G G D D n G U U C C Q U 0 G o.G U D D T U D T U G G T T U ",
"G n D U D T G n G D C G C U U 0 D @.U D U U C D G G G C T T D T G n D U D T G n G D C G C U U 0 D @.U D U U C D G G U C U U D Q ",
"U C D D C G D D D D T G n U U 0 D %.G j n b n n G U n n C D G D D C D D C G D D D D T G n U U 0 D %.G j n b n n D U n n C D G G ",
"D C G b D C n C D C G D C D D s D @.U n j b n j j b b C n n C b n D G b D C n C D C G D C D D s D @.U n j b n j j b b C n n C n ",
"j s y 7 s y y 7 y y y s s h y 0 D / n 0 y y s s y 0 s s s s s s s s s 7 0 s 0 0 0 y 0 s s j y 0 D / n 0 0 y h s s y s s s s s h ",
"7 > : * * * * * + * * o + + + 7 D G 7 o + + + * * * * * * * * : > > > : + * * * * * + o + + * 7 D G 0 + o o + : : * * * * * * 2 ",
"y > 2 y y s h h b h s s s s b n G G n s s h j h h h h h j j j y 7 2 > 0 s y h h h h s h s h j b D G n h j j h j s h h j h s s h ",
"C h %.g.p.e.3.3.7.3.e.e.e.3.e.7.3.7.3.7.3.7.7.,.e.3.7.7.7.7.-.] C s U r.g.r.3.3.e.e.7.7.e.r.p.r.7.7.,.7.3.7.7.,.e.3.7.7.7.7.-.Q ",
"G T c.k.e.,.%.%.@.%.-.,.,.,.%.%.-.%.o.-.3.%.@.%.-.-.-.-.%.@.{ %./ n 3.v.p.3.-.%.,.,.-.-.3.7.3.,.,.%.o.-.3.%.@.%.-.-.-.-.%.%.@.@.",
"D T 7.o.{ o.{ o.o.@.o./ ] { ] ] ] o.{ @.%.{ ] { { ] o./ ] o.{ @.T b -.,.] { { o.{ @.o./ ] ] / / / o.{ @.%.{ ] { { ] { { { ] @.o.",
"b C %.] { -./ { { @.o.] / { %.{ { %.o.@.{ { { ] { ] o./ o.{ { %.G s ] %.] @.] { { @.o./ { { %.{ { %.o.@.{ { { ] { ] o.{ o.] %.o.",
"b D @.] / / ] ] T / ] ] Q ] ] / { o./ / ] ] { o.] ] { o.{ ] Q o.G s { @./ / ] / / / ] ] / ] ] / { o./ / ] ] { o.] ] o.{ ] ] / { ",
"b G @.Q Q T Q ] Q Q ] ] ] / T T T ] ] / { ] Q @.{ o.{ o.o.{ Q ] G s { o.T T Q / Q Q ] { ] / T T T ] ] / { ] Q @.{ o.o.{ { { / ] ",
"b C @.Q T T T ] / U Q ] ] ] G U Q Q T / ] { Q { { ] { ] / Q Q { D h ] o.T Q Q T G T Q ] ] ] G U Q Q T / ] { Q { { ] { { Q T { / ",
"j D o.T Q Q U Q T G G / Q T U G U G G / Q T ] / Q U T Q T U D o.D s / ] T ] D U T G G / Q T U G U G G / Q T ] / Q U T T T G Q o.",
"h G / U U D D G U D T U G T / Q D Q Q G U U U U U U G Q T G G { n s Q T U G n Q Q D T U G T / Q D Q Q G U U U U U U G Q U G Q / ",
"h D Q D D C G T D G U U G D U U G T G D G G D D n G U G C D G / j h Q U D G G G D G U U G D U U G T G D G G D D n G U U C C Q T ",
"s G ] D G T U G D D C G C T T D T G n D U D T G n G D C D D C Q j s ] T C U T C D D C G C T T D T G n D U D T G n G D C G C U Q ",
"h U ] b b n b b C G U n n C D G D D C D D C G D D D D U U C n Q b s { U j b b n C G U n n C D G D D C D D C G D D D D T G n U T ",
"h U ] C j b j n j j b b C n n C b n C D n D C n C D C U G C C G b h ] T n j b n j j b b C n n C b n D G b D C n C D C G D C D U ",
"s U U y y s y s s y 0 s s s s s s s s y 2 y y y 7 y y y s y s h 0 j Q n 0 y y s s y 0 s s s s s s y s y 7 s y y 7 y y y s s h j ",
"s D C > + o + * : * * * * : : : : : * * * * * * * + * + o o + + : j U s * + o + : : * * * : : : : : * + * * * * * * * * o + + : ",
"n D G n h j h s s h s h s 0 0 2 : 7 s h j s s h h j s s j j s s b C G D j s j h y s h j s 0 0 2 : 7 s h h y y h h h y s j h y h ",
"7.-.,.,.3.7.,.7.,.7.3.7.3.@.U b h G ,.r.e.e.7.e.e.e.7.e.r.e.7.7.e.7.3.3.7.7.7.e.3.7.e.e.e.%.U b h G -.e.r.r.7.e.e.e.7.7.e.r.7.e.",
"-.o.%.3.%.@.%.-.-.-.-.%.%.%.o.D G 7.x.p.7.p.r.7.3.3.7.e.3.-.,.3.-.-.,.3.,.-.-.-.,.,.,.-.,.%.o.D G 7.x.p.e.h.g.7.3.7.e.r.7.e.7.e.",
"@.{ @.%.{ ] { { ] { { { ] @.{ n G 7.,.{ { @.%.{ { { { o.] ] { ] o.{ o.@.] ] ] { ] { { { ] @.{ n G e.e.{ ] @.%.{ { { ] o.o./ ] { ",
"%.o.@.{ { { ] { ] o.{ o.] %.{ h n 3.@.] @.] { o.@.@.] ] { %.{ { %.o.@.{ { { ] { ] o.{ o.] %.{ h n 3.@.] @.] { o.@.@.] ] ] @.o.{ ",
"@./ / ] ] { o.] ] o.{ ] ] ] { h C 3.%./ o.] / ] { { ] Q ] ] / { o./ / ] ] { o.] ] o.{ ] ] ] { h C 3.%./ o.] / ] { { ] / { o.{ o.",
"o.] / { ] Q @.{ o.o.{ { { / / h C %.{ / T Q / ] Q / ] / / T T T ] ] / { ] Q @.{ o.o.{ { { / / h C %.{ / T Q / ] Q / ] / / Q Q ] ",
"Q T / ] { Q { { ] { { Q T { / s D o.Q T T / Q U / ] ] o.] G U Q Q T / ] { Q { { ] { { Q T { / s D o.Q T T / Q U / ] ] { ] U U / ",
"U G / Q T ] / Q U T T T G Q { s D %.] T / U G U T T ] / T U G U G G / Q T ] / Q U T T T G Q { s D %.] T / U G U T T ] / Q G G Q ",
"/ Q G U U U U U U G Q U G / Q y D %.Q T Q C Q Q C G Q U U / Q D Q Q G U U U U U U G Q U G / Q y D %.Q T Q C Q Q C G T T T / U U ",
"T G D G G D D n G U U C C Q U 0 G o.G U D D T U D Q U D D U U G T G D G G D D n G U U C C Q U 0 G o.G U D D T U D Q U G G T T U ",
"G n D U D T G n G D C G C U U 0 D @.U D U U C D G G G C T T D T G n D U D T G n G D C G C U U 0 D @.U D U U C D G G U C U U D Q ",
"U C D D C G D D D D T G n U U 0 D %.G j n b n n G U n n C D G D D C D D C G D D D D T G n U U 0 D %.G j n b n n G U n n C D G G ",
"D C G b D C n C D C G D C D D s D @.T n j b n j j b b C n n C b n D G n D C n C D C G D C D D s D @.U n j b n j j b b C n n C n ",
"j s y 7 s y y 7 y y y s s h y 0 D / b y s y s s y 0 s s s s s s s s s 2 y y y 7 y y 0 s s j y 0 D / n 0 0 y h s s y s s s s s h ",
"+ > * : : : : : : : * + + * : 0 G U 0 + + + * : : : : : : : : : : : : : : : : : : : * + + * : 0 G U 0 + + + * > > : : : : : : : ",
"C h j j j j j j j j j j j j n n G G n j j j j j j j j j j j j j j j j j j j j j j j j j j j n n G G n j j j j j j j j j j j j b "
};
