/* XPM */
static char *_3decf7281334c81e7e30c32fb8fd10dR27PqM7WGIWekuRs[] = {
/* columns rows colors chars-per-pixel */
"64 64 150 2 ",
"   c #2E2711",
".  c #3B2F16",
"X  c #3B3016",
"o  c #3F3218",
"O  c #433717",
"+  c #433519",
"@  c #49371C",
"#  c #463919",
"$  c #4C3A1C",
"%  c #543E1E",
"&  c #583F1F",
"*  c #563F20",
"=  c #583F20",
"-  c #56401F",
";  c #59401F",
":  c #4E4225",
">  c #544325",
",  c #5C4121",
"<  c #574528",
"1  c #5A4729",
"2  c #5D4829",
"3  c #634524",
"4  c #684726",
"5  c #674825",
"6  c #684825",
"7  c #6A4825",
"8  c #694826",
"9  c #694827",
"0  c #6A4926",
"q  c #6B4926",
"w  c #6B4827",
"e  c #6B4927",
"r  c #6C4827",
"t  c #6C4927",
"y  c #6D4927",
"u  c #6D4A26",
"i  c #6C4A27",
"p  c #6D4A27",
"a  c #6F4B27",
"s  c #6C4926",
"d  c #664C2C",
"f  c #624A2B",
"g  c #6E4A28",
"h  c #6F4A28",
"j  c #6F4B28",
"k  c #6D4C2B",
"l  c #704C27",
"z  c #704B27",
"x  c #714C28",
"c  c #724C28",
"v  c #724C29",
"b  c #734C29",
"n  c #724D29",
"m  c #734D29",
"M  c #724C2A",
"N  c #734D2A",
"B  c #744D29",
"V  c #744D2A",
"C  c #744E2A",
"Z  c #754E2A",
"A  c #754F2A",
"S  c #764E2A",
"D  c #774E2A",
"F  c #764E2B",
"G  c #774E2B",
"H  c #764F2B",
"J  c #774F2B",
"K  c #744E2A",
"L  c #784F2B",
"P  c #794F2B",
"I  c #794F2C",
"U  c #784F2B",
"Y  c #6F502F",
"T  c #78502B",
"R  c #79502B",
"E  c #7A502B",
"W  c #78502C",
"Q  c #79502C",
"!  c #7A502C",
"~  c #7B502C",
"^  c #7A512C",
"/  c #7B512C",
"(  c #7B502D",
")  c #7B512D",
"_  c #7C512C",
"`  c #7C512D",
"'  c #7D512D",
"]  c #7C522D",
"[  c #7D522D",
"{  c #7E522D",
"}  c #7E522E",
"|  c #7E542E",
" . c #7F542F",
".. c #7F552F",
"X. c #7B512C",
"o. c #6F4F30",
"O. c #6D5030",
"+. c #6E5030",
"@. c #6F5030",
"#. c #745333",
"$. c #755332",
"%. c #795534",
"&. c #7C5734",
"*. c #795533",
"=. c #7B5C3D",
"-. c #7C5D3B",
";. c #80532E",
":. c #80552E",
">. c #81552E",
",. c #80552F",
"<. c #81552F",
"1. c #80562E",
"2. c #81562F",
"3. c #83562F",
"4. c #84562F",
"5. c #85562F",
"6. c #82552F",
"7. c #825630",
"8. c #835630",
"9. c #845730",
"0. c #855730",
"q. c #855731",
"w. c #865730",
"e. c #865731",
"r. c #845730",
"t. c #865831",
"y. c #875831",
"u. c #875931",
"i. c #815937",
"p. c #875831",
"a. c #885831",
"s. c #895931",
"d. c #885932",
"f. c #895932",
"g. c #8A5A32",
"h. c #8B5A32",
"j. c #8B5A33",
"k. c #8D5B34",
"l. c #8D5B35",
"z. c #8E5C34",
"x. c #8E5C35",
"c. c #8F5C35",
"v. c #885931",
"b. c #855A38",
"n. c #845B38",
"m. c #895F3B",
"M. c #905C35",
"N. c #905D35",
"B. c #925E36",
"V. c #8B603B",
/* pixels */
"=.#.#.#.#.#.#.#.#.#.#.#.#.#.#.#.#.#.#.#.$.#.#.#.#.#.#.#.#.#.#.#.#.#.#.#.#.#.#.#.#.#.#.#.#.#.#.#.#.#.#.#.#.#.#.#.#.#.#.#.#.#.#.=.",
"k.k.k.k.k.k.k.x.B.B.B.x.k.x.x.x.x.k.k.x.k.x.k.x.x.k.B.B.B.x.k.x.k.x.B.B.B.x.k.x.x.x.k.x.B.B.B.x.x.k.x.x.k.x.x.x.k.k.k.B.B.B.x.k.",
"b.{ { R ~ R ~ ~ y y 4 g { { ~ ~ ~ ~ ~ ~ ~ ~ { ~ { { y e 4 g { { { ~ y y 4 g { { ~ ~ { ~ y y 4 g { ~ ~ ~ ~ ~ ~ ~ { ~ ~ y y 4 g b.",
"2 % & , , , = + %   . , $ + + + o % & + $ + % + + % ,   . , % + % o &   . , $ o + + # o &   X , + - + + - + # + % ; % -   . , 2 ",
"> # 3 { F ~ e $ e.@ 3 f.% # # # + e F # , $ 3 $ + & u.@ 3 f.e $ 4 , 7.@ 3 f.= # O # , & e.@ 3 ,.% F % $ F % 3 % 3 ~ g e.@ 3 ,.d ",
"> # 3 { ~ { 3 % u.% 3 f.3 # # # $ v F $ 3 % 3 % # & u.% 3 f.y $ y , 7.% 3 f.4 & # & y , 7.% 3  .- ~ - % I & 3 & 3 ;.F e.$ 3 ,.2 ",
"> # , F ~ ~ , $ e.$ 3 f.4 $ # # % L y # 3 % 3 % # & e.$ 3 u.3 $ e , ,.$ 3 u.v 3 & 3 F , ,.$ 3  .& ~ & % F & 3 % 3 { v 7.$ 3 ,.1 ",
"1 # & y { F % % e.$ 3 f.z % # # , R 4 # 3 % 3 % # & e.$ 3 f.3 $ y , ,.$ 3 e.F v e F F , ,.$ 3  .& ~ & % F & 3 % 3 { v 7.$ 3 ,.2 ",
"O.# # , v 3 # $ e.$ 3 u.v , # $ g { 3 # 3 % 3 % # & e.$ 3 f., $ y , ,.$ 3 e.F L ~ ~ v , ,.$ 3  .& ~ & % F & 3 & 3 { v 7.$ 3 ,.2 ",
"O.# # % , , # % e.$ 3 u.F 3 O & L ~ , # 3 % 3 % # & e.$ 3 u.& $ y , ,.$ 3 e.v ~ L ~ v , ,.$ 3  .& ~ % $ F & 3 & , { v 7.$ 3 ,.1 ",
"%.$ # # & $ # , e.$ 3 e.F v & 3 { L % # 3 % 3 % # & e.$ 3 u.& $ y , ,.$ 3 5.y ~ F ~ v , ,.$ 3  .& ~ % $ F & 3 & , ~ F 7.$ 3 ,.< ",
"i., # # # # $ 3 7.$ 3 e.F F e v { F $ # 3 % 3 $ # & e.$ 3 e.# $ v , ,.$ 3 5.l ~ F ~ v & 7.$ 3  .& ~ % $ F & 3 & , ~ F 7.$ 3 7.> ",
"&.4 # # # # 3 e  .$ 3 e.v F v F ~ F % # 3 % 3 $ # & e.$ 3 7.+ & F , ,.$ 3 ,.4 T L ~ y & 7.$ 3  .& ~ % $ F % 3 & $ F v 7.$ 3 7.> ",
"*.F , # # # e 3 ,.$ 3 5.y ~ F L ~ y # # 3 % 3 % # & e.$ 3 ,.+ , v ; 7.$ 3 ,.3 R ~ ~ 3 & 7.$ 3  .& ~ % $ F % 3 & $ F F 7.$ 3 7.> ",
"$.{ z $ # , y & 7.$ 3 5.z ~ F L ~ 3 # # 3 % 3 % # & e.$ 3 ,.# 3 v & 7.$ 3 ,., F ~ ~ 3 % e.$ 3  .& ~ & $ F & 3 , $ g F 7.$ 3 7.> ",
"d ~ { 3 # e e $ e.$ 3 ,.4 R L L { 5 # # 3 % 3 % # & e.$ 3 ,.& F g & 7.$ 3  .% v R F % % e.$ 3  .& ~ & % F & 3 , $ g F 7.$ 3 e.< ",
"2 F { F 3 F 3 $ e.$ 3 ,.3 F ~ ~ ~ 3 # # 3 % 3 $ # & e.$ 3 ,., R 3 & 7.$ 3 ,.# 3 v 3 # & e.$ 3  .& ~ & % F % 3 3 # e R 7.$ 3 e.< ",
"1 z R ~ F F , $ e.$ 3 ,.; v ~ ~ F , # # 3 % 3 % # & e.$ 3 5.y { 3 % 7.$ 3 7.# % 3 & # & e.$ 3  .& ~ & % F % 3 3 # 3 L e.$ 3 e.< ",
"> 3 R ~ ~ F $ $ e.$ 3 ,.& v ~ ~ F , # $ 3 % 3 % # & e.$ 3 e.F F , & 7.$ 3 7.# # % # # & e.$ 3  .& ~ & % F % e y # - F e.$ 3 e.f ",
"> , v ~ { e # $ e.$ 3 ,.$ y ~ ~ F & # & e $ 3 % # & e.$ 3 u.F g & & e.$ 3 7.# # # # # & e.$ 3  .& ~ & % F % e g $ $ y f.$ 3 e.f ",
"> % e R ~ 3 # % e.$ 3 ,.# 3 ~ ~ y % # - 3 @ 3 % # & e.$ 3 u.F 3 $ & e.$ 3 e.# # $ # $ , 7.$ 3  .& ~ % $ F % 3 z $ # 3 f.$ 3 e.f ",
"> $ , g y & # & e.$ 3 ,.# , R ~ 3 $ # , 3 # 3 % # & e.$ 3 u.y , # & e.$ 3 f.& # # # , , 7.$ 3  .& ~ % $ F % 3 ~ % O & e.$ 3 ,.f ",
"< # & 3 , # # & e.$ 3 ,.# & v L 3 $ # , 3 $ 3 % # & e.$ 3 u.3 % # & e.$ 3 f.e % # & e , 7.$ 3  .& ~ % $ F % 3 L % O % e.$ 3 ,.f ",
"2 # $ & $ # $ , 7.$ 3 7.# $ 3 y , # # 3 e # 3 % # & e.$ 3 u., # # & e.$ 3 u.F y , y F , ,.$ 3  .& ~ % $ F % 3 F & # $ e.$ 3 ,.f ",
"f # # # # # & , 7.$ 3 7.# $ 3 3 % # # y e # 3 % # & e.$ 3 e.$ # # & e.$ 3 e.F F z R F , ,.$ 3  .& ~ % $ I & , ~ , # # 7.$ 3 5.f ",
"d # # # # $ , , 7.$ 3 7.# # & & # # % y 3 # 3 % # & e.$ 3 7.# # # & e.$ 3 e.v L L ~ F , ,.$ 3  .& ~ % $ I - & F 3 # # 7.$ 3 ,.2 ",
"$.# # # # $ , , 7.$ 3 7.# # # $ # # % v , # 3 % # & e.$ 3 7.# # $ , 7.$ 3 e.F L F ~ v & 7.$ 3  .- ~ & $ I - & F g # # 7.$ 3 ,.< ",
"*.% # # # ; 5 , 7.$ 3 7.# # $ # # # , ~ & % y $ # & e.$ 3 7.# # % = 7.$ 3 e.F L F ~ y % 7.$ 3  .- ~ & $ I - , L 4 % $ 7.% 3 e.> ",
"$., # # # , 4 & e.$ 3 7.# # # # # # , F % % y $ # & e.$ 3 e.# # , , 7.$ 3 7.e R F { 3 $ 7.$ 3  .& ~ & $ F , % F z & # 7.$ 3 7.> ",
"k 3 # # # , 3 & e.$ 3 7.# # # # # # 3 F $ % y $ # & e.$ 3 7.# # , , 7.$ 3 ,.3 R L { 3 $ 7.$ 3  .& ~ & $ F , # g R & # 7.$ 3 e.< ",
"d y % # # e , % u.$ 3 e.# # # # # # e F # % y $ # & e.$ 3 7.# $ e , 7.$ 3 ,., F ~ ~ 3 $ 7.$ 3  .& ~ % $ F , # g ~ , $ ,.$ 3 e.1 ",
"1 y , # % y % % u.$ 3 u.$ # $ $ # # y F # % y $ # & e.$ 3 ,.# , v , ,.$ 3 ,.& y R { , $ e.$ 3  .& ~ % $ F , # e { 3 % ,.$ 3 e.< ",
"< 3 y % 3 e # & e.$ 3 u.& # # # # $ F y # % y $ # & e.$ 3 ,.$ 4 F , ,.$ 3 ,.$ e ~ ~ , $ e.$ 3  .& ~ % $ F , # 3 ~ y , ,.$ 3 e.< ",
"> ; v 3 y , # & e.$ 3 f.3 $ # # # & L 4 # % y $ # & e.$ 3 ,., v F & ,.$ 3 ,.$ 3 ~ z $ $ e.$ 3  .& ~ & $ F , O , ~ F , ,.$ 3 e.< ",
"> $ 3 F 4 % # & e.$ 3 f.z , # # # , { e # , e @ # & u.$ 3 ,.3 ~ v %  .$ 3 ,.# , v 3 # $ e.$ 3  .& ~ % $ F , O , F ~ y ,.$ 3 e.2 ",
"> # , 3 , $ # & e.$ 3 u.F e $ # $ y { , # , 3 # # & u.$ 3 ,.y { g %  .$ 3 7.# % 3 & # & e.$ 3  .& ~ % $ F , O % F ~ v e.$ 3 e.2 ",
"> # $ , $ # # & e.$ 3 e.F L , # , ~ F = # 3 e # # & e.$ 3 e.F ~ 3 $ ,.$ 3 7.# # % $ # & e.$ 3  .& ~ & $ F 3 # & F ~ v 7.$ 3 ,.f ",
"< # $ $ $ $ # & e.$ 3 e.F { g = g { F % # e e # # & e.$ 3 e.F ~ 3 # 7.$ 3 7.# # # # # , e.$ 3  .& ~ & $ F , # % F ~ v 7.$ 3 ,.f ",
"1 # # # $ # $ , 7.$ 3 e.F I ~ F ~ ~ z % # e e # # & e.$ 3 e.F F & # 7.$ 3 e.# # $ # # , 7.$ 3  .& ~ & $ F 3 # $ y ~ v 7.$ 3 ,.2 ",
"2 # # # $ # % , 7.$ 3 ,.e R L ~ L ~ e # # g e # # & e.$ 3 u.F y & # 7.$ 3 e.$ # # # $ , 7.$ 3  .& ~ - + g e # # 3 { v 7.$ 3 ,.1 ",
"d $ # # # $ , , 7.$ 3  ., F ~ F L ~ 3 # $ F 4 # # & e.$ 3 u.v 3 $ # 7.$ 3 f.& # # # % , e.$ 3  .& ~ , O 5 e # # , F F 7.$ 3 ,.1 ",
"o.% # # # % 3 , 7.$ 3  .% F ~ F ~ F , # % L 3 # # & e.$ 3 f.z , # % e.$ 3 f.3 # # # = , ,.$ 3  .& ~ , O 3 g # # & F F 7.$ 3 ,.< ",
"#.& # # # , 3 & 7.$ 3 ,.$ v ~ F ~ F & # % F , # # & e.$ 3 f.e = # % e.$ 3 f.y & # & 3 , ,.$ 3  .& ~ , O 3 g $ # % v F e.$ 3 7.> ",
"#.3 $ # $ 3 e & 7.$ 3 ,.# 3 ~ ~ ~ y $ # ; F , # # & e.$ 3 f.3 $ # % e.$ 3 u.v 3 = 3 y , ,.$ 3  .& ~ , O , z $ # $ 4 F e.$ 3 7.> ",
"$.y & # % e 3 & 7.$ 3 ,.# , F ~ F 3 # # , F % # # & e.$ 3 f.& # # & e.$ 3 u.F y , e F , ,.$ 3  .& ~ , # , F & # # , y e.$ 3 7.> ",
"d v , & , y , & 7.$ 3 7.# % y R y & # # e L % # # & e.$ 3 e.# # # & e.$ 3 e.v F y R F , ,.$ 3  .& ~ , # & F , # # # , u.$ 3 7.> ",
"1 F 3 = 3 F & & 7.$ 3 7.# # , F 3 $ # $ e F % # # & e.$ 3 7.# # $ , 7.$ 3 5.y ~ L ~ z , 7.$ 3  .& ~ , # & v 3 # # # $ e.$ 3 7.> ",
"< F v , y F $ % e.$ 3 7.# # $ , , # # % F y # $ % & e.$ 3 7.# # & , 7.$ 3 5.y ~ F ~ z & 7.$ 3  .& ~ , O & F y $ # # # 7.$ 3 7.> ",
"> e { v L F $ % e.$ 3 e.$ # # $ $ # # & L 3 # $ $ & e.$ 3 7.# # , , ,.$ 3 5.l ~ L ~ e & 7.$ 3  .& ~ , O $ v y % # # $ 7.$ 3 7.> ",
"< , F ~ ~ y $ & e.$ 3 e.% # # # # # # , F 3 # # $ & e.$ 3 7.# $ 3 3 ,.$ 3 7.4 R ~ ~ 3 $ e.$ 3  .& ~ , O $ e ~ , # # $ 7.$ 3 e.< ",
"> % y ~ ~ 3 $ & e.$ 3 e., $ # # $ # $ e R , # $ % & 7.$ 3 ,.# , F , ,.$ 3 ,.3 R ~ L 3 % e.$ 3  .% F , O $ e ~ , $ # $ 7.$ 3 e.< ",
"> $ 3 R ~ 3 $ & e.$ 3 f.3 $ # # $ # % g L % # % % & 7.$ 3 ,.$ 4 ~ , ,.$ 3 ,., F ~ F , % e.$ 3  .% F , # # 3 ~ 4 $ # $ 7.% 3 e.2 ",
"> $ , F v , # & e.$ 3 f.e % # # # # , F z % # % % & e.$ 3 ,., F L , ,.$ 3 ,.; F ~ v & % e.$ 3  .% F , # # , ~ g = # # 7.$ 3 e.f ",
"< # % e 3 & # & e.$ 3 f.v 3 $ # # # , R 3 # # , % & e.$ 3 e.y ~ F , ,.$ 3 ,.% e { y # $ e.$ 3 ,.% v , # # , v R 3 % # 7.$ 3 u.d ",
"< # $ 3 , $ # & e.$ 3 e.y e % # # # 3 { 3 # # , % & e.$ 3 e.F ~ F , ,.$ 3 ,.# 3 R 3 # $ e.$ 3 ,.% v , # # & e { 4 = $ ,.$ 3 f.k ",
"< # # , , # # & e.$ 3 ,.3 F , # # & g L & # # 3 & % e.$ 3 e.v ~ F , ,.$ 3 ,.# , z , # % e.$ 3 ,.% F , # # % 3 ~ y = & ,.$ 3 f.d ",
"< # # & % # # & e.$ 3 ,.& F y & # , { v $ # # 3 & % e.$ 3 e.v ~ z , 7.$ 3 5.# & 3 & # % e.$ 3 ,.% F , # # $ , v R , & e.$ 3 u.Y ",
"1 # # # # # $ , 7.$ 3 ,.$ y { e = y ;.3 # # # 3 & % e.$ 3 e.v ~ z & 7.$ 3 e.# % , % # % e.$ 3 ,.# e 3 # # # & e { 3 & e.$ 3 u.$.",
"f $ # # # # & , 7.$ 3 ,.# , L ~ F ~ F , # # % v & % e.$ 3 e.v ~ 3 & 7.$ 3 7.# # $ # # % e.$ 3 ,.# 3 e # # # % 3 { 3 & 7.$ 3 u.$.",
"f # # # # # , , 7.$ 3 7.# % v ~ ~ R y % # # , v & % e.$ 3 e.F L 3 & 7.$ 3 7.# # # # # % e.$ 3 ,.# 3 y $ # # $ , v 4 & 7.$ 3 u.$.",
"d % # # # $ 3 , 7.$ 3 7.# # 3 v R F , # # # 3 F $ & 7.$ 3 u.v v , & 7.$ 3 7.# # # # # % u.$ 3 e.# , y % # # # % 3 3 & 7.$ 3 u.$.",
"$.& # # # % e , 7.$ 3 e.# # % 3 v 3 $ # # # y F # & 7.$ 3 u.v e $ & e.$ 3 7.# # # # # ; e.$ 3 e.# & v ; # # # $ , , , 7.$ 3 u.$.",
"y , $ # # , z , 7.$ 3 7.# # # & 3 & # # # % F 4 # & e.$ 3 u.4 & # & e.$ 3 7.# # # # # ; e.$ 3 u.$ $ 4 , # # # # $ & , 7.$ 3 u.y ",
"-.d 2 > 2 d k f m.1 k V.< > > > 1 > > > > f $.f > f V.< d V.1 : > f V.< d V.1 > > < 1 f m.< d V.f > f d 1 > < < > < f V.< d V.-."
};
