/* XPM */
static char *_3bd4297cb854116cbe4e9060cc64a33MkO9pHOUL69lg5t3[] = {
/* columns rows colors chars-per-pixel */
"64 64 196 2 ",
"   c #001313",
".  c #001F1F",
"X  c #002121",
"o  c #002C2C",
"O  c #003333",
"+  c #003C3C",
"@  c #004444",
"#  c #0D4646",
"$  c #004D4D",
"%  c #0E4848",
"&  c #144A4A",
"*  c #194E4E",
"=  c #005252",
"-  c #005D5D",
";  c #195050",
":  c #006464",
">  c #006D6D",
",  c #0B6F6F",
"<  c #007575",
"1  c #0B7272",
"2  c #007B7B",
"3  c #0D7F7F",
"4  c #127474",
"5  c #1F7474",
"6  c #167C7C",
"7  c #247474",
"8  c #297676",
"9  c #257D7D",
"0  c #2A7B7B",
"q  c #317979",
"w  c #397E7E",
"e  c #008383",
"r  c #0D8181",
"t  c #008B8B",
"y  c #0C8A8A",
"u  c #138585",
"i  c #198787",
"p  c #138A8A",
"a  c #1B8B8B",
"s  c #009494",
"d  c #0D9494",
"f  c #009B9B",
"g  c #0E9C9C",
"h  c #139494",
"j  c #1B9595",
"k  c #129B9B",
"l  c #1B9999",
"z  c #208686",
"x  c #2E8282",
"c  c #208D8D",
"v  c #368282",
"b  c #3A8282",
"n  c #398F8F",
"m  c #269090",
"M  c #259B9B",
"N  c #01A4A4",
"B  c #0CA0A0",
"V  c #04A9A9",
"C  c #0AAEAE",
"Z  c #0FACAC",
"A  c #0DADAD",
"S  c #0BABAB",
"D  c #13A3A3",
"F  c #1CA5A5",
"G  c #11ADAD",
"H  c #15AFAF",
"J  c #13ADAD",
"K  c #1BAEAE",
"L  c #1CACAC",
"P  c #05B3B3",
"I  c #00B5B5",
"U  c #02B1B1",
"Y  c #0CB2B2",
"T  c #06BABA",
"R  c #00BEBE",
"E  c #01BCBC",
"W  c #0BBBBB",
"Q  c #12B2B2",
"!  c #14B2B2",
"~  c #19B1B1",
"^  c #1DB2B2",
"/  c #13BBBB",
"(  c #18BABA",
")  c #22ABAB",
"_  c #28AAAA",
"`  c #25A5A5",
"'  c #38ABAB",
"]  c #23B4B4",
"[  c #2AB5B5",
"{  c #25BABA",
"}  c #2CBABA",
"|  c #34BCBC",
" . c #3BBEBE",
".. c #34B4B4",
"X. c #458383",
"o. c #528787",
"O. c #5F9494",
"+. c #629393",
"@. c #46A2A2",
"#. c #4AB7B7",
"$. c #5ABCBC",
"%. c #6FA3A3",
"&. c #62B5B5",
"*. c #00C5C5",
"=. c #09C8C8",
"-. c #13C3C3",
";. c #1EC1C1",
":. c #25C1C1",
">. c #2CC1C1",
",. c #24CACA",
"<. c #2EC9C9",
"1. c #35C2C2",
"2. c #3FC1C1",
"3. c #34CCCC",
"4. c #3CCBCB",
"5. c #20D4D4",
"6. c #2DD0D0",
"7. c #23DADA",
"8. c #37D5D5",
"9. c #3CD0D0",
"0. c #37D8D8",
"q. c #38E2E2",
"w. c #43C1C1",
"e. c #4BC3C3",
"r. c #4BCACA",
"t. c #57C5C5",
"y. c #54C4C4",
"u. c #5BC5C5",
"i. c #56CBCB",
"p. c #4CD3D3",
"a. c #4CDADA",
"s. c #46D5D5",
"d. c #52D4D4",
"f. c #5DD5D5",
"g. c #54D8D8",
"h. c #63C6C6",
"j. c #6CC7C7",
"k. c #65CACA",
"l. c #6CCACA",
"z. c #72C7C7",
"x. c #72CBCB",
"c. c #7BCDCD",
"v. c #6CD6D6",
"b. c #64DBDB",
"n. c #6ADFDF",
"m. c #72D2D2",
"M. c #7DD1D1",
"N. c #70DADA",
"B. c #5EEBEB",
"V. c #68E6E6",
"C. c #69EEEE",
"Z. c #7FE2E2",
"A. c #73E1E1",
"S. c #84CFCF",
"D. c #84D2D2",
"F. c #8BD4D4",
"G. c #85DEDE",
"H. c #8FD8D8",
"J. c #92D7D7",
"K. c #95DADA",
"L. c #9BDDDD",
"P. c #9CD5D5",
"I. c #A0D7D7",
"U. c #A1DFDF",
"Y. c #86E3E3",
"T. c #88E4E4",
"R. c #8DEEEE",
"E. c #95ECEC",
"W. c #9BE9E9",
"Q. c #9FE2E2",
"!. c #99F3F3",
"~. c #A4E1E1",
"^. c #ACE4E4",
"/. c #A7EDED",
"(. c #AFEFEF",
"). c #B1E7E7",
"_. c #B5E9E9",
"`. c #BCEBEB",
"'. c #AFF7F7",
"]. c #A6F8F8",
"[. c #ACF8F8",
"{. c #B2F0F0",
"}. c #BBF5F5",
"|. c #B2FAFA",
" X c #BAFAFA",
".X c #C3EEEE",
"XX c #C6F1F1",
"oX c #CCF2F2",
"OX c #C2FBFB",
"+X c #CCFEFE",
"@X c #D4F4F4",
"#X c #DAF7F7",
"$X c #D6FFFF",
"%X c #DCFDFD",
"&X c #E3FCFC",
"*X c #EAFFFF",
/* pixels */
"* d 3 3 3 3 r 3 3 3 3 3 3 3 3 3 r 3 3 3 3 3 r 3 r r r 3 3 3 3 r 3 r 3 3 r r 3 3 3 r 3 3 r r r 3 3 r 3 3 r 3 3 3 3 3 3 3 3 3 d i ",
"+ t 2 2 < < 2 2 2 2 2 2 2 2 2 2 2 2 2 2 2 2 2 2 2 2 2 2 2 2 < 2 2 2 2 2 2 2 2 2 2 2 2 2 2 2 2 2 2 2 2 2 2 2 2 2 2 2 2 2 < < s 2 ",
"# s > > B L e < 2 2 2 2 2 2 2 2 2 2 2 2 2 2 2 2 2 2 2 2 2 2 2 2 2 2 2 2 2 2 2 2 2 2 2 2 2 2 2 2 2 2 2 2 2 2 2 2 2 2 : e K d t r ",
"# f = + ^ 3.< 2 2 2 2 2 2 2 2 2 2 2 2 2 2 2 2 2 2 2 2 2 2 2 2 2 2 2 2 2 2 2 2 2 2 2 2 2 2 2 2 2 2 2 2 2 2 2 2 2 e > O < 0.l e r ",
"# f : O $ - < e 2 2 2 2 2 2 2 2 2 2 2 2 2 2 2 2 2 2 2 2 2 2 2 2 2 2 2 2 2 2 2 2 2 2 2 2 2 2 2 2 2 2 2 2 2 2 2 2 e > + + - : s r ",
"# s < = + : e 2 2 2 2 2 2 2 2 2 2 2 2 2 2 2 2 2 2 e 2 2 2 2 e e e 2 2 e e e 2 2 2 2 2 2 2 2 2 2 2 2 2 2 2 2 2 2 2 2 : @ @ 2 f r ",
"# s 2 t e e e e 2 e t e e e e e e e t e t t t t e t t t t t t t t e t t t t t t t t t t t t t t e t t t t t t t e e e e e e f r ",
"# s t t t t t e 2 2 2 2 2 2 2 2 2 2 < 2 2 2 2 2 < 2 2 2 2 2 < 2 2 2 2 < < 2 < 2 2 2 2 2 2 2 2 2 2 e e e e e e e t t t t t e f r ",
"# f t s s s s e 2 - @ $ = $ $ $ = $ $ = = $ $ $ = $ $ $ = $ $ = = $ $ $ $ $ $ $ $ $ $ $ $ $ $ $ = = = = = = $ $ 2 s t s s s N r ",
"% N f f t t s g [ s t t t t t t t t t t t t t t t t t t t t t t t t t t t t t t s t t s s t t t t t t t s t s - : V f s t s V r ",
"# V e > g L s k k.N s f f f f f s f f f f f f f f f f f f f f f f f f f f f s s f s s f f s s f f f f f f s N : : N < e K g N r ",
"% E - O ^ 1.2 g u.f t s s s s s f s f s s s s f f f f f f f f f f f f f f f f s s s s s s s s s f s f f s s f : > t O < 8.j f r ",
"# E < o @ = e G t.N s f f f f f N f f f f f f f N N N f f f f N f f f f N N f f N N f N N N N N N f N N N N N : > s + + = : I r ",
"% I t = @ < N D t.V N N N N N N N N N N N N N N N N N N N N N N N N N N N N N N N N N N N N N N N V N N N N U : < I > @ = s E r ",
"% I N f V P V G t.V N N N N N N N N N N N N N S V S N N N V S N N N V S S S V N V N V V V V V V V V V V V V W , > E N f V V T r ",
"& W Y Y Q A V ^ y.V V V V N N V V N V N S V V ^ G S S A S S G V V A S J ^ J S S G S S A J A S A A S S G A V P : > T S Y Q S R r ",
"& -.G ] A A N ] u.S S S S S S S S S A S V S A V V S S V V S S S S V S V V V G V V V V N V V N S K A S A S G / : , :.^ ! A S -.u ",
"# W { { J K ^ K k.^ N S S V V A J ^ ^ ^ G G ^ ] ^ ^ ^ ^ ^ ^ ^ ^ ^ ^ ^ ^ ^ ] G G J J J J G J ^ ^ ] ] ^ ! ] ] { > 4 <.} ^ G ] ,.u ",
"# ,.K 2 D F F | x.| ^ ^ ^ ] ] ^ ] ] ] ^ ] ^ ] { ] ] ] ] ] ] ] ] ] ] ] ] ^ ^ { { { { { { { { { ] { ^ { } ] } ;.: 1 ,.y e L F ,.r ",
"% 7.1 o ^ [ y >.D.e.! ] ] ] ] ] [ { ] } [ } { ] | [ [ { { } } | | } } | | | ^ { [ { ] [ [ ] { { { | |  .} } <., 9 { o > 3.j ( y ",
"& q.i . @ $ M 4.F.e.{ | } | [ | | | | 2.w.| | } |  .} | |  . .w.w. .2.w.w.w. . .w. . .w.w. . .w.e.w.w. .w.w.p.1 x [ O O @ > s.p ",
"& a.^ : = z i.e.^.k.}  .| |  . .e.w. . .| w.w.e.e.w.y.e.e.e.e.w.w.e.e.e.e.w.e.e.w.e.y.w.w.y.e.w.u.w.u.e.w.u.d.1 8 a.e = - #.V.i ",
"% p.k.>.r.v.x.t.~.x. .w.e.w.e.e.t.y.e.e.w.y.e.t.u.y.t.t.y.t.t.u.u.t.t.u.u.u.e.t.y.y.y.y.y.y.t.y.e.e.y.y.e.u.N.4 7 Y.1.1.f.m.b.u ",
"& f.l.M.l.k.u.k._.l.e.u.u.u.u.y.e.y.u.y.y.u.h.x.l.l.k.u.h.l.x.x.l.x.x.x.x.c.c.k.x.k.k.l.l.k.k.l.l.k.k.k.x.x.G.4 7 Z.K.D.c.H.Z.u ",
"* E.F.L.Q.H.M.L..XK.x.D.D.M.M.D.D.M.D.D.D.D.c.H.K.F.K.D.F.J.J.H.H.K.D.J.K.K.D.L.K.K.J.K.K.K.L.K.J.L.L.J.K.K.}.v w OXK.^.^.^.!.i ",
"* T.XX(.I.^..XL.`.K.L.K.K.L.L.K.K.L.L.L.K.K.~.L.K.~.L.^.U.~.^.^.^.~.U.^.^.^.U.K.U.L.L.U.L.L.~.L.L.~.~.L.L.L.OXv w %X{.L.P..X|.u ",
"& |.F.u k ) D.oXoX^.~.~.L.~.~.L.U.^.^.~.L.U.^.^.~._.).~.^._.)._.^.).^.).^._.^.~.^._._._.^.^.^.^.^.)._._.^._.+X0 X.*X@.e F y. Xa ",
"& +Xo.X G F @.%X#X`.^.)._.^.^._._.^.^.)._._.`._._.^.^._._._.`._.`._._.`.`._._._.^._._._.oXoXoXoXoX.X.X.X.X`.%X0 O.}.o : ,.j /.m ",
"& &X%.  + @ &.*X@X_._.`.`.`.@X@XoX.X.X`..X.XoX.X`.`._..X`..XoX.XoX.X.XoXoXXXoX`.`..X`..X@X@X#X@XoXoXoX.XoXoX%X0 +.A.O o @ 1 '.c ",
"& $XM.: $ a '.@X&XoX.XoX.X.X@X@XoXoXoXoXoXoX.X.XoX.X.XoXXX.X.XXX.X.X`..X.X`.`..XXX.X.X_..X`..X_._..X.X.X`.^.$Xb o.!.t = - c.OXi ",
"* |.}.b.d.W.`._.&X#X^._.)._..XoXoX.X_.oX.XXX`.^._.)..X`._.`.)._._._._._._._._._._._.^.)._._._.).).).)._._._.OX0 w $XY.d.n.oX].u ",
"* [._..X.XU.H.).oX_._.^.)._.).)._._._.)._.^._.).^._.).).).^.^.^.^.).).^.^.).).).^.).~.~._.)._.~.~.^.^.^.^._.}.8 b OX_.oX).L.!.i ",
"* E.~.L.~.L.J.~.XX_.L.~.U.L.U.^._.^.^.^.).^.~.~.~.L.U.L.U.^.K.K.L.K.K.L.K.K.K.K.L.K.K.L.K.~.L.K.L.L.L.L.K.L.OXb q }.L.~.^.U.T.u ",
"& E.W.m.$.u.k.S.oXK.D.F.H.F.M.D.J.K.K.F.H.F.F.F.F.H.D.F.H.D.D.D.D.D.D.F.F.D.D.D.F.D.D.F.S.H.F.c.F.S.S.F.c.F.Y.6 5 Z.G.h.h.M.b.u ",
"% R.$.< g D ..D.`.H.j.h.k.u.u.x.c.c.c.x.c.z.x.k.j.k.u.h.l.j.u.y.t.y.y.u.h.u.y.t.u.t.y.u.h.u.u.k.u.u.u.u.k.h.f.1 7 n.u e J ) g.i ",
"& C.8 o ! [ y v._.D.y.u.t.u.h.k.y.u.h.u.u.k.h.t.u.u.h.t.e.u.t.e.y.u.t.t.y.t.u.y.w.y.t.t.w.t.y.y.y.y.y.y.t.e.p.1 9 2.O > 6.h 1.a ",
"% B.n X @ = h f._.x.y.e.t.u.u.t.t.y.y.t.t.t.u.y.w.h.u.u.t.e.2. .u.y.e.e. .w.w.w.w.#.e. .e.w.w.w.w.e.e.#.w.w.4.1 x :.+ O $ > 3.p ",
"& a.[ : @ 6 >.e.^.x.| 2. .w. .w.w.w.w.e.w.w.e.w.w. .w.|  . .| w. . . . .w.} | | | | }  . .| | 2. . . . .w.[ ;.> 5 6.e @ = F 5.r ",
"& 9.} Y ^ >.^ | L.u.{ { [ } { | | | | | | | | [ { } } { ] ] { ] [ { ] [ [ ^ ^ ^ ^ ^ ^ ] ] ] ] { { ] ] { ] { ;.: , <.^ Q { } ,.r ",
"% ,.| [ } [ ^ | H. .! ] ] ] ] ^ ^ ^ ^ ^ ^ ^ ^ ] ] ^ ] ] ] ] ^ { ^ ] { ^ ] { { ] ] { ] ] { [ { { { { { { { [ :.> 4 <.[ } [ [ ,.r ",
"% ;.^ ! G G G [ k.} ^ { { ] [ { ] { { { { { ] ] { ] ] ] { ^ ^ J G G ^ ] A S S S S A S S A G J G A J J G G ! Q : , / ^ Q G J -.r ",
"# W Q V N N S ] u.G S G A V J G G G G G J A S S G S S G G G G A J S V G G S V G S V A S G S S V S V V V V A U : > E P N f N -.r ",
"% -.s > D L B ^ h.^ S J G S V ] J G G J G S S G J G S A J S V A A V V V S S S S V S V G J J J A G A N S V G / : 1 ,.< e K D / u ",
"% =.: O ^ | e Y h.G N S V N V G A S A A V V V V S N V N V N N N N V N N V N N N N N N N N N N N N N N N N N U : < N O > 8.j V y ",
"% *.< o @ $ e Q y.V N N N N f N N N N N N N N N N N N N N N N N N N N N N N N N N N f N N N N f N N N N f N V : < f + O = > E r ",
"% E s - @ > f G t.f f f f f s f f f f f f f f f f f f f f f f f f f f f f f f f f f f f f N f f f f f f f N N : > V < @ = s E r ",
"% V f s s N f k t.f f f f f f f f f f f f f f f f f f f f f s s s s f f s s s s s s s s s s s s s s s s s f f : : N s s N N V r ",
"# N f f f f s k y.V s f s f f f s f s f f f f s f f f f s f f f s f f s f f f s s s f s s f s s s s f s s f f : : N f f f s U r ",
"% V f f f f s k t.f s f s s f f f s f f s s s f f f s s f s s s s s s s s s s s s s s s s s s s s s s s s s N : : N f f f s V r ",
"% N f s t t s h y.f t s s s s s s s s s s s s s s s s s s s t t t t t t t t t t t t t s t t t s t t t s t t s : : f s s t t V r ",
"# N 2 > g L e p t.s e e t t t e t t t t e t t e e t t t t t t t t t t t e t t e t t t t t e e e t t t t t e t - : s > e K g f r ",
"# f $ + ^ 1.< h t.s 2 e e e e 2 e e 2 e 2 e e e e 2 e 2 e e e e 2 e e e 2 e e 2 e e 2 e e e e 2 e e 2 e e e e - : 2 O < 8.j e r ",
"# f : O $ - > p t.s < e e e 2 e e e 2 e 2 e e e e 2 e 2 e 2 2 e 2 2 2 2 2 2 2 2 2 2 2 2 2 2 2 2 2 2 2 2 2 2 e - : t @ + - - s r ",
"# s e - @ - 2 u t.s < 2 2 2 2 2 2 2 2 2 2 2 2 2 2 2 2 2 2 2 2 2 2 2 2 2 2 2 2 2 2 2 2 2 2 2 2 2 2 2 2 2 2 2 e - - t < @ @ > s r ",
"# s e e 2 e 2 p k.t > 2 2 2 < 2 2 2 2 2 2 < 2 2 2 2 2 2 2 < < 2 2 < 2 < 2 2 2 2 2 2 < 2 < 2 2 2 2 2 2 2 2 2 2 - - e e 2 e 2 s r ",
"# s 2 2 2 2 < < #.e._ f f f f f f f f f f f f f f f f f f f f f f f f f f f f f f f f f f f f f f f f f f N N > : 2 2 2 2 < t r ",
"# t 2 2 < < < < 2 ` ' f f f f f f f f f f f f f f f f f f f f f f f f f f f f f f f f f f f f f f f f f f f f 2 < < 2 < < < s r ",
"# t 2 2 < < < 2 < > > > < < > > > > > > > > > < > < > > < > > > > > > < > > > > > > > < > > > > < < > > > > > 2 2 < 2 2 < < s r ",
"# t > > B L e < < < 2 < < 2 2 2 < < 2 < < < < < < < < < < < < < < < < < < < < < < < < < < < < < < 2 2 2 < < < < < 2 > e ^ d t r ",
"# s = @ ^ 3.< < < < < < < 2 < < < < < < < < < < < < < < < < < < < < < < < < 2 < < < < < < < < < < 2 < < < < < < 2 > O < 0.l e r ",
"# s - O $ - > 2 < < < < < < < < < < < < < < < < < < < < < < < < < < < < < < < < < < < < < < < < < < < < < < < < 2 : + + - - t r ",
"# t < = @ = < < < < < < < < < < < < < < < < < < < < < < < < < < < < < < < < < < < < < < < < < < < < < < < < < < < < : @ @ : t r ",
"+ t < < 2 2 2 < < 2 2 2 2 < < < < < 2 < < < < < 2 2 2 2 2 < 2 2 2 2 < 2 2 < 2 2 2 2 < < 2 < < < < < < < < < 2 < < 2 < < 2 < s 2 ",
"; d r r r r r r r r r 3 3 3 r r r r r r r r r r 3 r r 3 3 3 r r r r r 3 3 3 r r r r r r 3 r r r r r r r r r r r r 3 r r r 3 d i "
};
